<?xml version="1.0" encoding="UTF-8" standalone="no"?>
<!-- Created with Inkscape (http://www.inkscape.org/) -->

<svg xmlns:dc="http://purl.org/dc/elements/1.1/" xmlns:cc="http://creativecommons.org/ns#" xmlns:rdf="http://www.w3.org/1999/02/22-rdf-syntax-ns#" xmlns:svg="http://www.w3.org/2000/svg" xmlns="http://www.w3.org/2000/svg" xmlns:sodipodi="http://sodipodi.sourceforge.net/DTD/sodipodi-0.dtd" xmlns:inkscape="http://www.inkscape.org/namespaces/inkscape" width="12" height="16" viewBox="0 0 12 16" id="svg2" version="1.1" inkscape:version="0.91 r13725" sodipodi:docname="file.svg">
  <defs id="defs4" />
  <sodipodi:namedview id="base" pagecolor="#ffffff" bordercolor="#666666" borderopacity="1.0" inkscape:pageopacity="0.0" inkscape:pageshadow="2" inkscape:zoom="22.4" inkscape:cx="-2.1715" inkscape:cy="5.1473" inkscape:document-units="px" inkscape:current-layer="layer1" showgrid="false" units="px" inkscape:window-width="1280" inkscape:window-height="751" inkscape:window-x="0" inkscape:window-y="1" inkscape:window-maximized="1" />
  <metadata id="metadata7">
    <rdf:RDF>
      <cc:Work rdf:about="">
        <dc:format>image/svg+xml</dc:format>
        <dc:type rdf:resource="http://purl.org/dc/dcmitype/StillImage" />
        <dc:title></dc:title>
      </cc:Work>
    </rdf:RDF>
  </metadata>
  <g inkscape:label="Layer 1" inkscape:groupmode="layer" id="layer1" transform="translate(0,-1036.4)">
    <path style="opacity:1;fill:#efefef;fill-opacity:1;stroke:none;stroke-width:0.5;stroke-linecap:butt;stroke-linejoin:round;stroke-miterlimit:4;stroke-dasharray:none;stroke-dashoffset:0;stroke-opacity:1" d="M 0.25 0 C 0.1115 0 0 0.1115 0 0.25 L 0 2.3496 L 0 3.75 L 0 12.25 L 0 13.184 L 0 15.75 C 0 15.889 0.1115 16 0.25 16 L 11.75 16 C 11.889 16 12 15.889 12 15.75 L 12 12.25 L 12 3.4648 L 8.5352 0 L 7.6465 0 L 0.25 0 z " transform="translate(0,1036.4)" id="path4141" />
    <path style="opacity:1;fill:#bbbbbb;fill-opacity:1;stroke:none;stroke-width:0.5;stroke-linecap:butt;stroke-linejoin:round;stroke-miterlimit:4;stroke-dasharray:none;stroke-dashoffset:0;stroke-opacity:1" d="m 12.018,1039.9 -3.5004,-3.5 0,3.5 3.5004,0 z" id="rect4136" inkscape:connector-curvature="0" />
    <path style="opacity:1;fill:#bbbbbf;fill-opacity:1;stroke:none;stroke-width:0.5;stroke-linecap:butt;stroke-linejoin:round;stroke-miterlimit:4;stroke-dasharray:none;stroke-dashoffset:0;stroke-opacity:1" d="M 0 12 L 0 12.25 L 0 14.895 L 0 15.75 C 0 15.889 0.1115 16 0.25 16 L 11.75 16 C 11.889 16 12 15.889 12 15.75 L 12 14.895 L 12 12.25 L 12 12 L 11.75 12 L 0.25 12 L 0 12 z " id="rect4153" transform="translate(0,1036.4)" />
    <text xml:space="preserve" style="font-style:normal;font-variant:normal;font-weight:normal;font-stretch:normal;font-size:40px;line-height:125%;font-family:'Source Code Pro';-inkscape-font-specification:'Source Code Pro, Normal';text-align:center;letter-spacing:0px;word-spacing:0px;writing-mode:lr-tb;text-anchor:middle;fill:#ffffff;fill-opacity:1;stroke:none;stroke-width:1px;stroke-linecap:butt;stroke-linejoin:miter;stroke-opacity:1" x="5.9299803" y="1051.7406" id="text4177" sodipodi:linespacing="125%"><tspan sodipodi:role="line" id="tspan4179" x="5.9299803" y="1051.7406" style="font-style:normal;font-variant:normal;font-weight:normal;font-stretch:normal;font-size:3.75px;font-family:'Helvetica Neue';-inkscape-font-specification:'Helvetica Neue';fill:#ffffff;fill-opacity:1">FILE</tspan></text>
  </g>
</svg>
