<?xml version="1.0" encoding="UTF-8" standalone="no"?>
<!-- Created with Inkscape (http://www.inkscape.org/) -->

<svg
   xmlns:dc="http://purl.org/dc/elements/1.1/"
   xmlns:cc="http://creativecommons.org/ns#"
   xmlns:rdf="http://www.w3.org/1999/02/22-rdf-syntax-ns#"
   xmlns:svg="http://www.w3.org/2000/svg"
   xmlns="http://www.w3.org/2000/svg"
   xmlns:sodipodi="http://sodipodi.sourceforge.net/DTD/sodipodi-0.dtd"
   xmlns:inkscape="http://www.inkscape.org/namespaces/inkscape"
   width="36"
   height="48"
   viewBox="0 0 36 48"
   id="svg2"
   version="1.1"
   inkscape:version="0.92.2 (5c3e80d, 2017-08-06)"
   sodipodi:docname="json.svg">
  <defs
     id="defs4" />
  <sodipodi:namedview
     id="base"
     pagecolor="#ffffff"
     bordercolor="#666666"
     borderopacity="1.0"
     inkscape:pageopacity="0.0"
     inkscape:pageshadow="2"
     inkscape:zoom="8.2608"
     inkscape:cx="-5.3308088"
     inkscape:cy="23.874"
     inkscape:document-units="px"
     inkscape:current-layer="layer1"
     showgrid="false"
     units="px"
     inkscape:window-width="1833"
     inkscape:window-height="881"
     inkscape:window-x="10"
     inkscape:window-y="4"
     inkscape:window-maximized="0" />
  <metadata
     id="metadata7">
    <rdf:RDF>
      <cc:Work
         rdf:about="">
        <dc:format>image/svg+xml</dc:format>
        <dc:type
           rdf:resource="http://purl.org/dc/dcmitype/StillImage" />
        <dc:title></dc:title>
      </cc:Work>
    </rdf:RDF>
  </metadata>
  <g
     inkscape:label="Layer 1"
     inkscape:groupmode="layer"
     id="layer1"
     transform="translate(0,-1004.4)">
    <path
       style="opacity:1;fill:#efefef;fill-opacity:1;stroke:none;stroke-width:0.5;stroke-linecap:butt;stroke-linejoin:round;stroke-miterlimit:4;stroke-dasharray:none;stroke-dashoffset:0;stroke-opacity:1"
       d="m 0.74999,1004.4 c -0.41549,0 -0.74999,0.3 -0.74999,0.7 l 0,6.3 0,4.2 0,25.6 c -4.3839,21.1 36,0 36,0 l 0,-26.4 -10.395,-10.4 -2.666,0 z"
       id="path4141"
       inkscape:connector-curvature="0"
       sodipodi:nodetypes="sscccccccs" />
    <path
       style="opacity:1;fill:#bbbbbb;fill-opacity:1;stroke:none;stroke-width:0.5;stroke-linecap:butt;stroke-linejoin:round;stroke-miterlimit:4;stroke-dasharray:none;stroke-dashoffset:0;stroke-opacity:1"
       d="m 36,1014.9 -10.486,-10.5 0,10.5 10.486,0 z"
       id="rect4136"
       inkscape:connector-curvature="0" />
    <path
       style="opacity:1;fill:#722ea5;fill-opacity:0.94117647;stroke:none;stroke-width:0.5;stroke-linecap:butt;stroke-linejoin:round;stroke-miterlimit:4;stroke-dasharray:none;stroke-dashoffset:0;stroke-opacity:1"
       d="M 0 36 L 0 36.5 L 0 37.5 L 0 41.5 L 0 43.1 L 0 46.5 C 0 47.331 0.669 48 1.5 48 L 34.5 48 C 35.331 48 36 47.331 36 46.5 L 36 43.1 L 36 37.5 L 36 36.5 L 36 36 L 35.25 36 L 34.5 36 L 1.5 36 L 0.75 36 L 0 36 z "
       transform="translate(0,1004.4)"
       id="rect5487" />
    <rect
       y="281.46609"
       x="-994.21088"
       height="2.5565238"
       width="15.796674"
       id="rect6082"
       style="opacity:1;fill:#722ea5;fill-opacity:1;stroke:none;stroke-width:0.5295738;stroke-linecap:butt;stroke-linejoin:round;stroke-miterlimit:4;stroke-dasharray:none;stroke-dashoffset:0;stroke-opacity:1"
       transform="rotate(-75)" />
    <g
       aria-label="{/}"
       style="font-style:normal;font-weight:normal;font-size:40px;line-height:1.25;font-family:sans-serif;letter-spacing:0px;word-spacing:0px;fill:#722ea5;fill-opacity:1;stroke:none"
       id="text5151"
       transform="translate(49.01737,-0.9872)">
      <path
         d="m -43.686006,1028.1216 v -2.5 q 0.927083,-0.042 1.364583,-0.3646 0.447917,-0.3229 0.677084,-1.0104 0.239583,-0.6875 0.239583,-2.3229 0,-2.0625 0.1875,-2.8125 0.1875,-0.7605 0.59375,-1.2084 0.416667,-0.4583 1.208334,-0.75 0.802083,-0.2916 2.302083,-0.2916 h 0.552083 v 2.5 q -1.114583,0 -1.458333,0.125 -0.34375,0.1145 -0.510417,0.3854 -0.15625,0.2708 -0.15625,1 0,1.3125 -0.125,2.9271 -0.08333,1.052 -0.572916,1.8854 -0.364584,0.6146 -1.260417,1.1979 0.760417,0.4375 1.208333,1.1146 0.447917,0.6666 0.59375,1.6979 0.0625,0.4479 0.145834,2.9167 0.03125,0.9062 0.114583,1.125 0.135417,0.3229 0.5,0.4895 0.375,0.1667 1.520833,0.1667 v 2.4896 h -0.552083 q -1.510417,0 -2.239583,-0.25 -0.729167,-0.2396 -1.1875,-0.7188 -0.458334,-0.4687 -0.666667,-1.1979 -0.197917,-0.7187 -0.197917,-2.4896 0,-1.9791 -0.21875,-2.6666 -0.208333,-0.6979 -0.666667,-1.0417 -0.447916,-0.3437 -1.395833,-0.3958 z"
         style="font-style:normal;font-variant:normal;font-weight:bold;font-stretch:normal;font-size:21.33333397px;font-family:'Century Gothic';-inkscape-font-specification:'Century Gothic Bold';fill:#722ea5;fill-opacity:1"
         id="path5153"
         inkscape:connector-curvature="0" />
      <path
         d="m -19.623505,1025.6216 v 2.5 q -0.927083,0.052 -1.375,0.375 -0.4375,0.3125 -0.677083,1.0104 -0.239584,0.6875 -0.239584,2.3229 0,2.0625 -0.1875,2.8125 -0.177083,0.75 -0.59375,1.1979 -0.40625,0.4584 -1.208333,0.75 -0.791667,0.2917 -2.291667,0.2917 h -0.552083 v -2.4896 q 1.114583,0 1.447916,-0.125 0.34375,-0.1146 0.510417,-0.3854 0.166667,-0.2708 0.166667,-1 0,-1.3229 0.125,-2.9375 0.07292,-1.0521 0.5625,-1.875 0.375,-0.625 1.270833,-1.1979 -0.760417,-0.4375 -1.208333,-1.1042 -0.447917,-0.6771 -0.59375,-1.7187 -0.0625,-0.4375 -0.145834,-2.9063 -0.03125,-0.9167 -0.125,-1.125 -0.135416,-0.3333 -0.510416,-0.4896 -0.364584,-0.1666 -1.5,-0.1666 v -2.5 h 0.552083 q 1.510417,0 2.229167,0.25 0.729166,0.25 1.1875,0.7291 0.46875,0.4688 0.666667,1.1979 0.208333,0.7188 0.208333,2.4896 0,1.9792 0.208333,2.6667 0.21875,0.6875 0.666667,1.0312 0.447917,0.3438 1.40625,0.3959 z"
         style="font-style:normal;font-variant:normal;font-weight:bold;font-stretch:normal;font-size:21.33333397px;font-family:'Century Gothic';-inkscape-font-specification:'Century Gothic Bold';fill:#722ea5;fill-opacity:1"
         id="path5157"
         inkscape:connector-curvature="0" />
    </g>
    <path
       inkscape:connector-curvature="0"
       id="path5164"
       style="font-style:normal;font-variant:normal;font-weight:bold;font-stretch:normal;font-size:10.66666698px;line-height:1.25;font-family:sans-serif;-inkscape-font-specification:'sans-serif Bold';letter-spacing:0px;word-spacing:0px;fill:#ffffff;fill-opacity:1;stroke:none;stroke-width:0.89015239"
       d="m 4.9401044,1042.5661 h 2.0052084 v 5.5632 q 0,1.1514 -0.7916667,1.7208 -0.7864583,0.5696 -2.3854167,0.5696 h -0.40625 v -1.2009 h 0.3125 q 0.625,0 0.9427084,-0.2766 0.3229166,-0.2765 0.3229166,-0.8129 z" />
    <path
       inkscape:connector-curvature="0"
       id="path5166"
       style="font-style:normal;font-variant:normal;font-weight:bold;font-stretch:normal;font-size:10.66666698px;line-height:1.25;font-family:sans-serif;-inkscape-font-specification:'sans-serif Bold';letter-spacing:0px;word-spacing:0px;fill:#ffffff;fill-opacity:1;stroke:none"
       d="m 14.33073,1042.8109 v 1.6458 q -0.640625,-0.2864 -1.25,-0.4322 -0.609375,-0.1459 -1.151042,-0.1459 -0.71875,0 -1.0625,0.1979 -0.34375,0.198 -0.34375,0.6146 0,0.3125 0.229167,0.4896 0.234375,0.1719 0.84375,0.2969 l 0.854166,0.1719 q 1.296875,0.2604 1.84375,0.7916 0.546875,0.5313 0.546875,1.5104 0,1.2865 -0.765625,1.9167 -0.760416,0.625 -2.328125,0.625 -0.739583,0 -1.484375,-0.1406 -0.7447915,-0.1406 -1.4895832,-0.4167 v -1.6927 q 0.7447917,0.3958 1.4375002,0.599 0.697917,0.1979 1.34375,0.1979 0.65625,0 1.005208,-0.2188 0.348959,-0.2187 0.348959,-0.625 0,-0.3646 -0.239584,-0.5625 -0.234375,-0.1979 -0.942708,-0.3541 l -0.776042,-0.1719 q -1.1666665,-0.25 -1.7083331,-0.7969 -0.5364584,-0.5469 -0.5364584,-1.4739 0,-1.1615 0.75,-1.7865 0.7500005,-0.625 2.1562505,-0.625 0.640625,0 1.317708,0.099 0.677083,0.094 1.401042,0.2864 z" />
    <path
       inkscape:connector-curvature="0"
       id="path5168"
       style="font-style:normal;font-variant:normal;font-weight:bold;font-stretch:normal;font-size:10.66666698px;line-height:1.25;font-family:sans-serif;-inkscape-font-specification:'sans-serif Bold';letter-spacing:0px;word-spacing:0px;fill:#ffffff;fill-opacity:1;stroke:none"
       d="m 20.158855,1043.8786 q -0.916667,0 -1.421875,0.6771 -0.505209,0.6771 -0.505209,1.9063 0,1.2239 0.505209,1.901 0.505208,0.6771 1.421875,0.6771 0.921875,0 1.427083,-0.6771 0.505209,-0.6771 0.505209,-1.901 0,-1.2292 -0.505209,-1.9063 -0.505208,-0.6771 -1.427083,-0.6771 z m 0,-1.4531 q 1.875,0 2.9375,1.0729 1.0625,1.0729 1.0625,2.9636 0,1.8854 -1.0625,2.9583 -1.0625,1.0729 -2.9375,1.0729 -1.869792,0 -2.9375,-1.0729 -1.0625,-1.0729 -1.0625,-2.9583 0,-1.8907 1.0625,-2.9636 1.067708,-1.0729 2.9375,-1.0729 z" />
    <path
       inkscape:connector-curvature="0"
       id="path5170"
       style="font-style:normal;font-variant:normal;font-weight:bold;font-stretch:normal;font-size:10.66666698px;line-height:1.25;font-family:sans-serif;-inkscape-font-specification:'sans-serif Bold';letter-spacing:0px;word-spacing:0px;fill:#ffffff;fill-opacity:1;stroke:none"
       d="m 25.66927,1042.5661 h 2.239584 l 2.828125,5.3334 v -5.3334 h 1.901042 v 7.7761 h -2.239584 l -2.828125,-5.3334 v 5.3334 H 25.66927 Z" />
  </g>
</svg>
