<?xml version="1.0" encoding="UTF-8" standalone="no"?>
<!-- Created with Inkscape (http://www.inkscape.org/) -->

<svg
   xmlns:dc="http://purl.org/dc/elements/1.1/"
   xmlns:cc="http://creativecommons.org/ns#"
   xmlns:rdf="http://www.w3.org/1999/02/22-rdf-syntax-ns#"
   xmlns:svg="http://www.w3.org/2000/svg"
   xmlns="http://www.w3.org/2000/svg"
   xmlns:sodipodi="http://sodipodi.sourceforge.net/DTD/sodipodi-0.dtd"
   xmlns:inkscape="http://www.inkscape.org/namespaces/inkscape"
   width="36"
   height="48"
   viewBox="0 0 36 48"
   id="svg2"
   version="1.1"
   inkscape:version="0.92.2 (5c3e80d, 2017-08-06)"
   sodipodi:docname="shp.svg">
  <defs
     id="defs4" />
  <sodipodi:namedview
     id="base"
     pagecolor="#ffffff"
     bordercolor="#666666"
     borderopacity="1.0"
     inkscape:pageopacity="0.0"
     inkscape:pageshadow="2"
     inkscape:zoom="8.2608"
     inkscape:cx="24.603932"
     inkscape:cy="17.004834"
     inkscape:document-units="px"
     inkscape:current-layer="layer1"
     showgrid="false"
     units="px"
     inkscape:window-width="1833"
     inkscape:window-height="881"
     inkscape:window-x="10"
     inkscape:window-y="4"
     inkscape:window-maximized="0" />
  <metadata
     id="metadata7">
    <rdf:RDF>
      <cc:Work
         rdf:about="">
        <dc:format>image/svg+xml</dc:format>
        <dc:type
           rdf:resource="http://purl.org/dc/dcmitype/StillImage" />
        <dc:title></dc:title>
      </cc:Work>
    </rdf:RDF>
  </metadata>
  <g
     inkscape:label="Layer 1"
     inkscape:groupmode="layer"
     id="layer1"
     transform="translate(0,-1004.4)">
    <path
       style="opacity:1;fill:#efefef;fill-opacity:1;stroke:none;stroke-width:0.5;stroke-linecap:butt;stroke-linejoin:round;stroke-miterlimit:4;stroke-dasharray:none;stroke-dashoffset:0;stroke-opacity:1"
       d="m 0.74999,1004.4 c -0.41549,0 -0.74999,0.3 -0.74999,0.7 l 0,6.3 0,4.2 0,25.6 c -4.3839,21.1 36,0 36,0 l 0,-26.4 -10.395,-10.4 -2.666,0 z"
       id="path4141"
       inkscape:connector-curvature="0"
       sodipodi:nodetypes="sscccccccs" />
    <path
       style="opacity:1;fill:#1dd3a7;fill-opacity:1;stroke:none;stroke-width:0.5;stroke-linecap:butt;stroke-linejoin:round;stroke-miterlimit:4;stroke-dasharray:none;stroke-dashoffset:0;stroke-opacity:1"
       d="M 0 36 L 0 36.5 L 0 37.5 L 0 41.5 L 0 43.1 L 0 46.5 C 0 47.331 0.669 48 1.5 48 L 34.5 48 C 35.331 48 36 47.331 36 46.5 L 36 43.1 L 36 37.5 L 36 36.5 L 36 36 L 35.25 36 L 34.5 36 L 1.5 36 L 0.75 36 L 0 36 z "
       transform="translate(0,1004.4)"
       id="rect5487" />
    <path
       inkscape:connector-curvature="0"
       style="opacity:1;fill:#1dd3a7;fill-opacity:1;stroke:none;stroke-width:0.91044867;stroke-opacity:0.99130435"
       d="m 17.833631,1013.2997 a 11.07642,11.07642 0 0 0 -11.0765325,11.0765 11.07642,11.07642 0 0 0 11.0765325,11.0765 11.07642,11.07642 0 0 0 11.076533,-11.0765 11.07642,11.07642 0 0 0 -11.076533,-11.0765 z m 0,2.1498 a 8.9272638,8.9272638 0 0 1 8.926665,8.9267 8.9272638,8.9272638 0 0 1 -8.926665,8.9267 8.9272638,8.9272638 0 0 1 -8.9266644,-8.9267 8.9272638,8.9272638 0 0 1 8.9266644,-8.9267 z"
       id="path4541" />
    <path
       style="fill:#1dd3a7;fill-opacity:1;stroke:none;stroke-width:0.91044867px;stroke-linecap:butt;stroke-linejoin:miter;stroke-opacity:1"
       d="m 10.834974,1017.2122 c 0,0 -1.8714717,6.3416 2.314476,11.2969 4.185948,4.9553 9.121742,4.522 9.092584,4.4636 0,0 -2.837874,-0.8816 -7.21896,-5.9515 -4.381085,-5.07 -4.1881,-9.809 -4.1881,-9.809 z"
       id="path4548"
       inkscape:connector-curvature="0"
       sodipodi:nodetypes="czczc" />
    <path
       sodipodi:nodetypes="czczc"
       inkscape:connector-curvature="0"
       id="path4550"
       d="m 22.242034,1032.9727 c 0,0 6.48217,-7.7637 1.450183,-13.4979 -5.031988,-5.7343 -12.857243,-2.2626 -12.857243,-2.2626 0,0 6.602562,-1.5399 10.983641,3.53 4.381079,5.07 0.423419,12.2305 0.423419,12.2305 z"
       style="fill:#1dd3a7;fill-opacity:1;stroke:none;stroke-width:0.91044867px;stroke-linecap:butt;stroke-linejoin:miter;stroke-opacity:1" />
    <path
       style="fill:#1dd3a7;fill-opacity:1;stroke:none;stroke-width:0.91044867px;stroke-linecap:butt;stroke-linejoin:miter;stroke-opacity:1"
       d="m 22.242034,1032.9727 c 0,0 1.155104,-4.5782 -3.03087,-9.5335 -4.18597,-4.9553 -8.405416,-6.2853 -8.37619,-6.227 0,0 2.231701,2.7552 6.61278,7.8251 4.381079,5.0701 4.79428,7.9354 4.79428,7.9354 z"
       id="path4552"
       inkscape:connector-curvature="0"
       sodipodi:nodetypes="czczc" />
    <path
       style="fill:#1dd3a7;fill-opacity:1;stroke:none;stroke-width:0.91044867px;stroke-linecap:butt;stroke-linejoin:miter;stroke-opacity:1"
       d="m 22.242034,1032.9727 c 0,0 6.48217,-7.7637 1.450183,-13.4979 -5.031988,-5.7343 -12.857243,-2.2626 -12.857243,-2.2626 0,0 6.602562,-1.5399 10.983641,3.53 4.381079,5.07 0.423419,12.2305 0.423419,12.2305 z"
       id="path4554"
       inkscape:connector-curvature="0"
       sodipodi:nodetypes="czczc" />
    <path
       sodipodi:nodetypes="czczc"
       inkscape:connector-curvature="0"
       id="path4556"
       d="m 8.2214579,1027.2707 c 0,0 6.7718421,5.2148 12.5060301,0.1828 5.734278,-5.0321 3.858344,-10.713 3.858344,-10.713 0,0 -0.05586,4.4583 -5.12578,8.8394 -5.070016,4.3811 -11.2385941,1.6908 -11.2385941,1.6908 z"
       style="fill:#1dd3a7;fill-opacity:1;stroke:none;stroke-width:0.91044867px;stroke-linecap:butt;stroke-linejoin:miter;stroke-opacity:1" />
    <path
       style="opacity:1;fill:#bbbbbb;fill-opacity:1;stroke:none;stroke-width:0.5;stroke-linecap:butt;stroke-linejoin:round;stroke-miterlimit:4;stroke-dasharray:none;stroke-dashoffset:0;stroke-opacity:1"
       d="m 36,1014.9 -10.486,-10.5 0,10.5 10.486,0 z"
       id="rect4136"
       inkscape:connector-curvature="0" />
    <g
       aria-label="SHP"
       style="font-style:normal;font-weight:normal;font-size:40px;line-height:1.25;font-family:sans-serif;letter-spacing:0px;word-spacing:0px;fill:#f9f9f9;fill-opacity:1;stroke:none"
       id="text4574">
      <path
         d="m 12.005208,1042.7516 v 1.6458 q -0.640625,-0.2864 -1.25,-0.4323 -0.609375,-0.1458 -1.1510415,-0.1458 -0.7187501,0 -1.0625001,0.1979 -0.34375,0.1979 -0.34375,0.6146 0,0.3125 0.2291667,0.4896 0.234375,0.1719 0.84375,0.2969 l 0.8541669,0.1718 q 1.296875,0.2604 1.84375,0.7917 0.546875,0.5312 0.546875,1.5104 0,1.2865 -0.765625,1.9167 -0.760417,0.625 -2.3281252,0.625 -0.7395834,0 -1.484375,-0.1406 -0.7447917,-0.1407 -1.4895834,-0.4167 v -1.6927 q 0.7447917,0.3958 1.4375,0.5989 0.6979167,0.198 1.3437501,0.198 0.65625,0 1.0052085,-0.2188 0.348958,-0.2187 0.348958,-0.625 0,-0.3646 -0.239583,-0.5625 -0.234375,-0.1979 -0.9427085,-0.3542 l -0.7760417,-0.1718 q -1.1666667,-0.25 -1.7083334,-0.7969 -0.5364584,-0.5469 -0.5364584,-1.474 0,-1.1614 0.7500001,-1.7864 0.75,-0.625 2.15625,-0.625 0.640625,0 1.3177079,0.099 0.677084,0.094 1.401042,0.2865 z"
         style="font-style:normal;font-variant:normal;font-weight:bold;font-stretch:normal;font-size:10.66666698px;font-family:sans-serif;-inkscape-font-specification:'sans-serif Bold';fill:#f9f9f9"
         id="path4576" />
      <path
         d="m 14.28125,1042.5068 h 2.005208 v 2.9635 h 2.958334 v -2.9635 H 21.25 v 7.776 h -2.005208 v -3.2968 h -2.958334 v 3.2968 H 14.28125 Z"
         style="font-style:normal;font-variant:normal;font-weight:bold;font-stretch:normal;font-size:10.66666698px;font-family:sans-serif;-inkscape-font-specification:'sans-serif Bold';fill:#f9f9f9"
         id="path4578" />
      <path
         d="m 23.21875,1042.5068 h 3.328125 q 1.484375,0 2.276042,0.6615 0.796875,0.6562 0.796875,1.875 0,1.2239 -0.796875,1.8854 -0.791667,0.6562 -2.276042,0.6562 h -1.322917 v 2.6979 H 23.21875 Z m 2.005208,1.4531 v 2.1719 h 1.109375 q 0.583333,0 0.901042,-0.2813 0.317708,-0.2864 0.317708,-0.8072 0,-0.5209 -0.317708,-0.8021 -0.317709,-0.2813 -0.901042,-0.2813 z"
         style="font-style:normal;font-variant:normal;font-weight:bold;font-stretch:normal;font-size:10.66666698px;font-family:sans-serif;-inkscape-font-specification:'sans-serif Bold';fill:#f9f9f9"
         id="path4580" />
    </g>
  </g>
</svg>
