<?xml version="1.0" encoding="UTF-8" standalone="no"?>
<!-- Created with Inkscape (http://www.inkscape.org/) -->

<svg
   xmlns:dc="http://purl.org/dc/elements/1.1/"
   xmlns:cc="http://creativecommons.org/ns#"
   xmlns:rdf="http://www.w3.org/1999/02/22-rdf-syntax-ns#"
   xmlns:svg="http://www.w3.org/2000/svg"
   xmlns="http://www.w3.org/2000/svg"
   xmlns:sodipodi="http://sodipodi.sourceforge.net/DTD/sodipodi-0.dtd"
   xmlns:inkscape="http://www.inkscape.org/namespaces/inkscape"
   width="36"
   height="48"
   viewBox="0 0 36 48"
   id="svg2"
   version="1.1"
   inkscape:version="0.92.2 (5c3e80d, 2017-08-06)"
   sodipodi:docname="xml.svg">
  <defs
     id="defs4" />
  <sodipodi:namedview
     id="base"
     pagecolor="#ffffff"
     bordercolor="#666666"
     borderopacity="1.0"
     inkscape:pageopacity="0.0"
     inkscape:pageshadow="2"
     inkscape:zoom="8.2608"
     inkscape:cx="-13.524404"
     inkscape:cy="23.874"
     inkscape:document-units="px"
     inkscape:current-layer="layer1"
     showgrid="false"
     units="px"
     inkscape:window-width="1833"
     inkscape:window-height="881"
     inkscape:window-x="10"
     inkscape:window-y="4"
     inkscape:window-maximized="0" />
  <metadata
     id="metadata7">
    <rdf:RDF>
      <cc:Work
         rdf:about="">
        <dc:format>image/svg+xml</dc:format>
        <dc:type
           rdf:resource="http://purl.org/dc/dcmitype/StillImage" />
        <dc:title></dc:title>
      </cc:Work>
    </rdf:RDF>
  </metadata>
  <g
     inkscape:label="Layer 1"
     inkscape:groupmode="layer"
     id="layer1"
     transform="translate(0,-1004.4)">
    <path
       style="opacity:1;fill:#efefef;fill-opacity:1;stroke:none;stroke-width:0.5;stroke-linecap:butt;stroke-linejoin:round;stroke-miterlimit:4;stroke-dasharray:none;stroke-dashoffset:0;stroke-opacity:1"
       d="m 0.74999,1004.4 c -0.41549,0 -0.74999,0.3 -0.74999,0.7 l 0,6.3 0,4.2 0,25.6 c -4.3839,21.1 36,0 36,0 l 0,-26.4 -10.395,-10.4 -2.666,0 z"
       id="path4141"
       inkscape:connector-curvature="0"
       sodipodi:nodetypes="sscccccccs" />
    <path
       style="opacity:1;fill:#bbbbbb;fill-opacity:1;stroke:none;stroke-width:0.5;stroke-linecap:butt;stroke-linejoin:round;stroke-miterlimit:4;stroke-dasharray:none;stroke-dashoffset:0;stroke-opacity:1"
       d="m 36,1014.9 -10.486,-10.5 0,10.5 10.486,0 z"
       id="rect4136"
       inkscape:connector-curvature="0" />
    <path
       style="opacity:1;fill:#ff6700;fill-opacity:0.94117647;stroke:none;stroke-width:0.5;stroke-linecap:butt;stroke-linejoin:round;stroke-miterlimit:4;stroke-dasharray:none;stroke-dashoffset:0;stroke-opacity:1"
       d="M 0 36 L 0 36.5 L 0 37.5 L 0 41.5 L 0 43.1 L 0 46.5 C 0 47.331 0.669 48 1.5 48 L 34.5 48 C 35.331 48 36 47.331 36 46.5 L 36 43.1 L 36 37.5 L 36 36.5 L 36 36 L 35.25 36 L 34.5 36 L 1.5 36 L 0.75 36 L 0 36 z "
       transform="translate(0,1004.4)"
       id="rect5487" />
    <g
       style="font-style:normal;font-variant:normal;font-weight:normal;font-stretch:normal;font-size:40px;line-height:125%;font-family:'Source Code Pro';-inkscape-font-specification:'Source Code Pro, Normal';text-align:center;letter-spacing:0px;word-spacing:0px;writing-mode:lr-tb;text-anchor:middle;fill:#ffffff;fill-opacity:1;stroke:none;stroke-width:1px;stroke-linecap:butt;stroke-linejoin:miter;stroke-opacity:1"
       id="text6092">
      <g
         aria-label="XML"
         style="font-style:normal;font-weight:normal;font-size:40px;line-height:1.25;font-family:sans-serif;letter-spacing:0px;word-spacing:0px;fill:#ffffff;fill-opacity:1;stroke:none"
         id="text4532">
        <path
           d="m 10.531249,1046.3733 2.697917,3.9687 h -2.088542 l -1.8177082,-2.6562 -1.8020834,2.6562 H 5.421874 l 2.6979167,-3.9687 -2.59375,-3.8073 h 2.09375 l 1.7031251,2.5052 1.6979162,-2.5052 h 2.104167 z"
           style="font-style:normal;font-variant:normal;font-weight:bold;font-stretch:normal;font-size:10.66666698px;font-family:sans-serif;-inkscape-font-specification:'sans-serif Bold';fill:#ffffff;fill-opacity:1"
           id="path4534" />
        <path
           d="m 14.427083,1042.566 h 2.552083 l 1.770833,4.1615 1.781251,-4.1615 h 2.546875 v 7.776 h -1.895834 v -5.6875 l -1.791667,4.1927 h -1.270833 l -1.791667,-4.1927 v 5.6875 h -1.901041 z"
           style="font-style:normal;font-variant:normal;font-weight:bold;font-stretch:normal;font-size:10.66666698px;font-family:sans-serif;-inkscape-font-specification:'sans-serif Bold';fill:#ffffff;fill-opacity:1"
           id="path4536" />
        <path
           d="m 25.052084,1042.566 h 2.005208 v 6.2604 h 3.520833 v 1.5156 h -5.526041 z"
           style="font-style:normal;font-variant:normal;font-weight:bold;font-stretch:normal;font-size:10.66666698px;font-family:sans-serif;-inkscape-font-specification:'sans-serif Bold';fill:#ffffff;fill-opacity:1"
           id="path4538" />
      </g>
    </g>
    <rect
       y="281.14258"
       x="-993.00348"
       height="2.5565238"
       width="15.796674"
       id="rect6082"
       style="opacity:1;fill:#ff6700;fill-opacity:0.94117647;stroke:none;stroke-width:0.5295738;stroke-linecap:butt;stroke-linejoin:round;stroke-miterlimit:4;stroke-dasharray:none;stroke-dashoffset:0;stroke-opacity:1"
       transform="rotate(-75)" />
    <path
       style="opacity:1;fill:#ff6700;fill-opacity:0.94117647;stroke:none;stroke-width:0.42608732;stroke-linecap:butt;stroke-linejoin:round;stroke-miterlimit:4;stroke-dasharray:none;stroke-dashoffset:0;stroke-opacity:1"
       d="m 11.696602,1015.5957 -7.2310173,7.2309 -1.8076584,1.8078 1.8076371,1.8077 7.2310386,7.231 1.807659,-1.8078 -7.2309429,-7.231 7.2309199,-7.2309 z"
       id="rect6088"
       inkscape:connector-curvature="0" />
    <path
       id="path831"
       d="m 23.970659,1015.5957 7.230941,7.231 1.807736,1.8077 -1.807736,1.8077 -7.230941,7.231 -1.807735,-1.8077 7.230941,-7.231 -7.230941,-7.2309 z"
       style="opacity:1;fill:#ff6700;fill-opacity:0.94117647;stroke:none;stroke-width:0.42608732;stroke-linecap:butt;stroke-linejoin:round;stroke-miterlimit:4;stroke-dasharray:none;stroke-dashoffset:0;stroke-opacity:1"
       inkscape:connector-curvature="0" />
  </g>
</svg>
